<mxfile host="www.draw.io" modified="2019-11-25T14:51:40.426Z" agent="Mozilla/5.0 (Windows NT 10.0; Win64; x64) AppleWebKit/537.36 (KHTML, like Gecko) Chrome/78.0.3904.108 Safari/537.36" etag="g4dQF6gFrLYlj4_7h1Xl" version="12.3.0" type="github" pages="1">
  <diagram id="6tWBmtnaBJLYqPQgCqvX" name="Page-1">
    <mxGraphModel dx="782" dy="469" grid="1" gridSize="10" guides="1" tooltips="1" connect="1" arrows="1" fold="1" page="1" pageScale="1" pageWidth="827" pageHeight="1169" math="0" shadow="0">
      <root>
        <mxCell id="0"/>
        <mxCell id="1" parent="0"/>
        <mxCell id="MqMVllCQC_0FBIUsHoat-1" value="" style="shape=flexArrow;endArrow=classic;startArrow=classic;html=1;fillColor=#f5f5f5;strokeColor=#666666;" parent="1" edge="1">
          <mxGeometry width="50" height="50" relative="1" as="geometry">
            <mxPoint x="540" y="230" as="sourcePoint"/>
            <mxPoint x="540" y="150" as="targetPoint"/>
          </mxGeometry>
        </mxCell>
        <mxCell id="MqMVllCQC_0FBIUsHoat-2" value="Stock Price Increase or Decrease&lt;br&gt;" style="text;html=1;strokeColor=none;fillColor=none;align=center;verticalAlign=middle;whiteSpace=wrap;rounded=0;" parent="1" vertex="1">
          <mxGeometry x="570" y="180" width="40" height="20" as="geometry"/>
        </mxCell>
        <mxCell id="MqMVllCQC_0FBIUsHoat-5" value="" style="group;fillColor=#f8cecc;strokeColor=#b85450;" parent="1" vertex="1" connectable="0">
          <mxGeometry x="180" y="40" width="120" height="60" as="geometry"/>
        </mxCell>
        <mxCell id="MqMVllCQC_0FBIUsHoat-6" value="" style="group" parent="1" vertex="1" connectable="0">
          <mxGeometry x="180" y="160" width="120" height="60" as="geometry"/>
        </mxCell>
        <mxCell id="MqMVllCQC_0FBIUsHoat-7" value="" style="rounded=0;whiteSpace=wrap;html=1;fillColor=#dae8fc;strokeColor=#6c8ebf;" parent="MqMVllCQC_0FBIUsHoat-6" vertex="1">
          <mxGeometry width="120" height="60" as="geometry"/>
        </mxCell>
        <mxCell id="MqMVllCQC_0FBIUsHoat-8" value="Business&lt;br&gt;Factors" style="text;html=1;strokeColor=none;fillColor=none;align=center;verticalAlign=middle;whiteSpace=wrap;rounded=0;" parent="MqMVllCQC_0FBIUsHoat-6" vertex="1">
          <mxGeometry x="40" y="20" width="40" height="20" as="geometry"/>
        </mxCell>
        <mxCell id="MqMVllCQC_0FBIUsHoat-11" value="" style="group;fillColor=#e1d5e7;strokeColor=#9673a6;" parent="1" vertex="1" connectable="0">
          <mxGeometry x="180" y="280" width="120" height="60" as="geometry"/>
        </mxCell>
        <mxCell id="MqMVllCQC_0FBIUsHoat-13" value="Quantitative Factors" style="text;html=1;strokeColor=none;fillColor=none;align=center;verticalAlign=middle;whiteSpace=wrap;rounded=0;" parent="MqMVllCQC_0FBIUsHoat-11" vertex="1">
          <mxGeometry x="40" y="20" width="40" height="20" as="geometry"/>
        </mxCell>
        <mxCell id="MqMVllCQC_0FBIUsHoat-16" value="&lt;ul&gt;&lt;li&gt;Stock Crash&lt;/li&gt;&lt;li&gt;Local Currency&lt;/li&gt;&lt;li&gt;Interest Rates&lt;/li&gt;&lt;li&gt;Tax policies&lt;/li&gt;&lt;li&gt;Donald Trump Tweets&lt;/li&gt;&lt;/ul&gt;" style="rounded=1;whiteSpace=wrap;html=1;fillColor=#f8cecc;strokeColor=#b85450;align=left;spacingLeft=-16;" parent="1" vertex="1">
          <mxGeometry x="330" y="40" width="150" height="110" as="geometry"/>
        </mxCell>
        <mxCell id="MqMVllCQC_0FBIUsHoat-17" value="&lt;ul&gt;&lt;li&gt;Strong sales quarter&lt;/li&gt;&lt;li&gt;Product release causing social media interest&lt;/li&gt;&lt;li&gt;Poor reviews on new product&lt;/li&gt;&lt;li&gt;Elon Musk Tweets&lt;/li&gt;&lt;/ul&gt;" style="rounded=1;whiteSpace=wrap;html=1;fillColor=#dae8fc;strokeColor=#6c8ebf;align=left;verticalAlign=middle;spacingLeft=-16;spacingTop=-5;" parent="1" vertex="1">
          <mxGeometry x="330" y="160" width="150" height="110" as="geometry"/>
        </mxCell>
        <mxCell id="MqMVllCQC_0FBIUsHoat-18" value="&lt;ul&gt;&lt;li&gt;&lt;br&gt;&lt;/li&gt;&lt;/ul&gt;" style="rounded=1;whiteSpace=wrap;html=1;fillColor=#e1d5e7;strokeColor=#9673a6;" parent="1" vertex="1">
          <mxGeometry x="330" y="280" width="150" height="110" as="geometry"/>
        </mxCell>
        <mxCell id="MqMVllCQC_0FBIUsHoat-19" value="Macroeconomic Factors" style="text;html=1;strokeColor=none;fillColor=none;align=center;verticalAlign=middle;whiteSpace=wrap;rounded=0;" parent="1" vertex="1">
          <mxGeometry x="220" y="60" width="40" height="20" as="geometry"/>
        </mxCell>
      </root>
    </mxGraphModel>
  </diagram>
</mxfile>
